<svg xmlns="http://www.w3.org/2000/svg" version="1.1" xmlns:xlink="http://www.w3.org/1999/xlink" xmlns:svgjs="http://svgjs.dev/svgjs" width="2000" height="1252" viewBox="0 0 2000 1252"><g transform="matrix(1,0,0,1,-1.2121212121212466,-2.01935483870966)"><svg viewBox="0 0 396 248" data-background-color="#ffffff" preserveAspectRatio="xMidYMid meet" height="1252" width="2000" xmlns="http://www.w3.org/2000/svg" xmlns:xlink="http://www.w3.org/1999/xlink"><g id="tight-bounds" transform="matrix(1,0,0,1,0.2400000000000091,0.4000000000000057)"><svg viewBox="0 0 395.52 247.2" height="247.2" width="395.52"><g><svg></svg></g><g><svg viewBox="0 0 395.52 247.2" height="247.2" width="395.52"><g transform="matrix(1,0,0,1,98.45976,47.215199999999996)"><svg viewBox="0 0 198.60047999999998 152.7696" height="152.7696" width="198.60047999999998"><g><svg viewBox="0 0 198.60047999999998 152.7696" height="152.7696" width="198.60047999999998"><g><svg viewBox="0 0 198.60047999999998 152.7696" height="152.7696" width="198.60047999999998"><g id="textblocktransform"><svg viewBox="0 0 198.60047999999998 152.7696" height="152.7696" width="198.60047999999998" id="textblock"><g><svg viewBox="0 0 198.60047999999998 152.7696" height="152.7696" width="198.60047999999998"><g transform="matrix(1,0,0,1,0,0)"><svg width="198.60047999999998" viewBox="1.7999999999999998 -28 36.400000000000006 28" height="152.7696" data-palette-color="#000000"><path d="M18-16Q18.2-15.2 18.2-14L18.2-14Q18.2-12.85 18-12L18-12Q18.2-11.2 18.2-10L18.2-10Q18.2-8.85 18-8L18-8 16-8Q16.2-7.2 16.2-6L16.2-6Q16.2-4.85 16-4L16-4 14-4Q14.2-3.2 14.2-2L14.2-2Q14.2-0.85 14 0L14 0 2 0Q1.8-0.85 1.8-2L1.8-2Q1.8-3.2 2-4L2-4Q1.8-4.85 1.8-6L1.8-6Q1.8-7.2 2-8L2-8Q1.8-8.85 1.8-10L1.8-10Q1.8-11.2 2-12L2-12Q1.8-12.85 1.8-14L1.8-14Q1.8-15.2 2-16L2-16Q1.8-16.85 1.8-18L1.8-18Q1.8-19.2 2-20L2-20Q1.8-20.85 1.8-22L1.8-22Q1.8-23.2 2-24L2-24Q1.8-24.85 1.8-26L1.8-26Q1.8-27.2 2-28L2-28 14-28Q14.2-27.2 14.2-26L14.2-26Q14.2-24.85 14-24L14-24 16-24Q16.2-23.2 16.2-22L16.2-22Q16.2-20.85 16-20L16-20 18-20Q18.2-19.2 18.2-18L18.2-18Q18.2-16.85 18-16L18-16ZM14-8Q13.8-8.85 13.8-10L13.8-10Q13.8-11.2 14-12L14-12Q13.8-12.85 13.8-14L13.8-14Q13.8-15.2 14-16L14-16Q13.8-16.85 13.8-18L13.8-18Q13.8-19.2 14-20L14-20 12-20Q11.8-20.85 11.8-22L11.8-22Q11.8-23.2 12-24L12-24 6-24Q6.2-23.2 6.2-22L6.2-22Q6.2-20.85 6-20L6-20Q6.2-19.2 6.2-18L6.2-18Q6.2-16.85 6-16L6-16Q6.2-15.2 6.2-14L6.2-14Q6.2-12.85 6-12L6-12Q6.2-11.2 6.2-10L6.2-10Q6.2-8.85 6-8L6-8Q6.2-7.2 6.2-6L6.2-6Q6.2-4.85 6-4L6-4 12-4Q11.8-4.85 11.8-6L11.8-6Q11.8-7.2 12-8L12-8 14-8ZM36.5-4L38-4Q38.2-3.2 38.2-2L38.2-2Q38.2-0.85 38 0L38 0 34 0Q33.8-0.85 33.8-2L33.8-2Q33.8-3.2 34-4L34-4 32.5-4Q32.3-4.85 32.3-6L32.3-6Q32.3-7.2 32.5-8L32.5-8 31-8Q30.8-8.85 30.8-10L30.8-10Q30.8-11.2 31-12L31-12 26-12Q26.2-11.2 26.2-10L26.2-10Q26.2-8.85 26-8L26-8Q26.2-7.2 26.2-6L26.2-6Q26.2-4.85 26-4L26-4Q26.2-3.2 26.2-2L26.2-2Q26.2-0.85 26 0L26 0 22 0Q21.8-0.85 21.8-2L21.8-2Q21.8-3.2 22-4L22-4Q21.8-4.85 21.8-6L21.8-6Q21.8-7.2 22-8L22-8Q21.8-8.85 21.8-10L21.8-10Q21.8-11.2 22-12L22-12Q21.8-12.85 21.8-14L21.8-14Q21.8-15.2 22-16L22-16Q21.8-16.85 21.8-18L21.8-18Q21.8-19.2 22-20L22-20Q21.8-20.85 21.8-22L21.8-22Q21.8-23.2 22-24L22-24Q21.8-24.85 21.8-26L21.8-26Q21.8-27.2 22-28L22-28 36-28Q36.2-27.2 36.2-26L36.2-26Q36.2-24.85 36-24L36-24 38-24Q38.2-23.2 38.2-22L38.2-22Q38.2-20.85 38-20L38-20 37-20Q37.2-19.2 37.2-18L37.2-18Q37.2-16.85 37-16L37-16 34-16Q34.2-15.2 34.2-14L34.2-14Q34.2-12.85 34-12L34-12 35-12Q35.2-11.2 35.2-10L35.2-10Q35.2-8.85 35-8L35-8 36.5-8Q36.7-7.2 36.7-6L36.7-6Q36.7-4.85 36.5-4L36.5-4ZM33-16Q32.8-16.85 32.8-18L32.8-18Q32.8-19.2 33-20L33-20Q32.8-20.85 32.8-22L32.8-22Q32.8-23.2 33-24L33-24 26-24Q26.2-23.2 26.2-22L26.2-22Q26.2-20.85 26-20L26-20Q26.2-19.2 26.2-18L26.2-18Q26.2-16.85 26-16L26-16 33-16Z" opacity="1" transform="matrix(1,0,0,1,0,0)" fill="#000000" class="wordmark-text-0" data-fill-palette-color="primary" id="text-0"></path></svg></g></svg></g></svg></g></svg></g></svg></g></svg></g><path d="M280.761 41.215L280.761 0 33.561 0 33.561 247.2 280.761 247.2 280.761 205.985 266.984 205.985 266.984 233.423 47.338 233.423 47.338 13.777 266.984 13.777 266.984 41.215Z" fill="#000000" stroke="transparent" data-fill-palette-color="tertiary"></path></svg></g><defs></defs></svg><rect width="395.52" height="247.2" fill="none" stroke="none" visibility="hidden"></rect></g></svg></g></svg>